<?xml version="1.0" encoding="utf-8"?>
<!-- Generator: Adobe Illustrator 19.0.0, SVG Export Plug-In . SVG Version: 6.00 Build 0)  -->
<svg version="1.1" id="Capa_1" xmlns="http://www.w3.org/2000/svg" xmlns:xlink="http://www.w3.org/1999/xlink" x="0px" y="0px"
	 viewBox="180 217.7 400 160.6" style="enable-background:new 120 217.7 400 160.6;" xml:space="preserve">
<style type="text/css">
	.st0{fill:#264182;}
	.st1{fill:#6F7071;}
</style>
<g>
	<path class="st0" d="M205.9,276.6h4.4c0.2,3.1,1.5,4.6,3.9,4.6c1.2,0,2.1-0.4,2.8-1.1s1-1.7,1-2.9c0-0.4,0-0.7-0.1-1
		c-0.1-0.3-0.2-0.6-0.4-0.8c-0.1-0.2-0.4-0.5-0.6-0.7c-0.3-0.2-0.5-0.4-0.7-0.5s-0.5-0.3-0.9-0.5s-0.7-0.3-1-0.4
		c-0.2-0.1-0.6-0.2-1.1-0.4c-0.5-0.2-0.8-0.3-1-0.4c-0.8-0.3-1.5-0.7-2.1-1s-1.1-0.7-1.8-1.3c-0.7-0.5-1.2-1.2-1.5-2.1
		c-0.3-0.8-0.5-1.8-0.5-2.9c0-2.5,0.7-4.4,2.1-5.8s3.3-2.2,5.6-2.2c4.6,0,7.3,2.4,8,7.3h-4.2c-0.1-1.1-0.4-1.9-1-2.6s-1.4-1-2.5-1
		c-1,0-1.9,0.3-2.5,1c-0.6,0.7-0.9,1.5-0.9,2.6c0,0.4,0,0.8,0.1,1.1c0.1,0.3,0.3,0.6,0.5,0.9c0.3,0.3,0.5,0.5,0.7,0.7
		c0.2,0.2,0.5,0.4,1,0.6c0.5,0.2,0.8,0.4,1,0.4c0.2,0.1,0.6,0.2,1.3,0.5c0.6,0.2,1.1,0.4,1.3,0.5c0.8,0.3,1.5,0.6,2,0.9
		c0.6,0.3,1.2,0.8,1.8,1.4c0.6,0.6,1.1,1.3,1.5,2.3c0.4,0.9,0.5,2,0.5,3.2c0,2.4-0.8,4.3-2.4,5.8c-1.6,1.5-3.6,2.2-6,2.2
		c-2.7,0-4.7-0.7-6.1-2.2C206.7,281.5,206,279.4,205.9,276.6z"/>
	<path class="st0" d="M226.5,261.8V258h3.9v3.9H226.5z M226.5,284.6v-20.1h3.9v20.1L226.5,284.6L226.5,284.6z"/>
	<path class="st0" d="M246.8,270.2h-3.9c0-1.8-0.9-2.7-2.6-2.7c-0.6,0-1.2,0.2-1.6,0.6c-0.4,0.4-0.6,0.9-0.6,1.5
		c0,0.3,0,0.5,0.1,0.7c0.1,0.2,0.2,0.4,0.4,0.6c0.2,0.2,0.4,0.3,0.5,0.4s0.4,0.2,0.7,0.4c0.4,0.1,0.6,0.2,0.8,0.3
		c0.2,0.1,0.5,0.2,1,0.3c0.5,0.1,0.8,0.2,1,0.3c1.4,0.5,2.5,1.1,3.4,2c0.9,0.9,1.3,2.3,1.3,4.1c0,1.8-0.6,3.4-1.9,4.6
		c-1.3,1.2-2.9,1.8-4.8,1.8c-2,0-3.6-0.6-4.8-1.7s-2-2.8-2.1-5h3.9c0,1,0.3,1.7,0.9,2.3s1.3,0.9,2.2,0.9c0.8,0,1.5-0.2,1.9-0.7
		c0.4-0.5,0.6-1.1,0.6-1.9c0-0.2,0-0.4,0-0.6c0-0.2-0.1-0.4-0.2-0.5c-0.1-0.2-0.2-0.3-0.3-0.4c-0.1-0.1-0.3-0.2-0.5-0.4
		c-0.2-0.1-0.4-0.2-0.5-0.3c-0.1-0.1-0.3-0.2-0.7-0.3c-0.3-0.1-0.5-0.2-0.7-0.2c-0.1,0-0.4-0.1-0.8-0.2c-0.4-0.1-0.6-0.2-0.8-0.2
		c-1.4-0.5-2.5-1.2-3.4-2c-0.8-0.9-1.2-2.2-1.2-3.9c0-1.7,0.6-3,1.7-4.1c1.1-1,2.7-1.5,4.7-1.5C244.5,264.1,246.6,266.1,246.8,270.2
		z"/>
	<path class="st0" d="M251.2,284.6v-16.5h-2.4v-3.7h2.4v-4.8h3.9v4.8h2.4v3.7h-2.4v16.5L251.2,284.6L251.2,284.6z"/>
	<path class="st0" d="M273.9,275.9h-10.8c0,1.6,0.3,2.9,0.9,3.9c0.6,1.1,1.5,1.6,2.7,1.6c0.8,0,1.5-0.3,2.1-0.8
		c0.6-0.5,0.9-1.3,1.1-2.3h3.9c-0.4,2.4-1.3,4.1-2.7,5.3c-1.2,0.9-2.7,1.4-4.4,1.4c-2.5,0-4.5-1-5.8-3s-2-4.5-2-7.5
		c0-3.1,0.7-5.6,2-7.6c1.3-2,3.2-2.9,5.7-2.9c2.5,0,4.4,1,5.7,3.1C273.5,269.1,274,272,273.9,275.9z M263.1,272.6h7
		c0-1.4-0.3-2.6-0.9-3.7c-0.5-1.1-1.4-1.6-2.6-1.6c-1.1,0-1.9,0.5-2.6,1.4C263.4,269.7,263.1,270.9,263.1,272.6z"/>
	<path class="st0" d="M277.6,284.6v-20.1h3.7c0,1.2,0,2.1,0,2.7c0.7-2.1,2.2-3.1,4.5-3.1c1.3,0,2.3,0.4,3.1,1.1c0.5,0.4,0.8,1,1,1.7
		c0.3-0.7,0.8-1.3,1.4-1.8c1-0.6,2.1-1,3.5-1c2,0,3.5,0.7,4.6,2.2c0.8,1.1,1.3,2.7,1.3,4.8v13.6h-3.9v-13c0-1.2-0.2-2-0.5-2.5
		c-0.4-0.7-1.1-1.1-2.2-1.1c-1,0-1.8,0.3-2.3,0.9c-0.5,0.6-0.8,1.5-0.8,2.7v13.1h-3.9v-13c0-1.1-0.2-2-0.5-2.6
		c-0.4-0.7-1.1-1.1-2.1-1.1c-1,0-1.8,0.3-2.3,0.8c-0.5,0.6-0.8,1.5-0.8,2.7v13.1L277.6,284.6L277.6,284.6z"/>
	<path class="st0" d="M318.6,264.5v20.1H315c0-1.2,0-2.1,0-2.6c-0.9,2-2.4,3.1-4.4,3.1c-1.9,0-3.5-0.9-4.7-2.7
		c-1.2-1.8-1.8-4.4-1.8-7.7c0-3.3,0.6-5.9,1.7-7.7c1.1-1.8,2.7-2.8,4.8-2.8c2.2,0,3.7,1.1,4.4,3.2c0-0.6,0-1.5,0-2.7L318.6,264.5
		L318.6,264.5z M308,274.6L308,274.6c0,4.4,1.1,6.6,3.4,6.6c1,0,1.8-0.5,2.5-1.4c0.3-0.5,0.6-1.1,0.7-1.8c0.1-0.7,0.2-1.9,0.2-3.4
		c0-1.6,0-2.7-0.2-3.5c-0.1-0.7-0.3-1.3-0.7-1.8c-0.6-0.9-1.5-1.4-2.5-1.4C309.1,268,308,270.2,308,274.6z"/>
	<path class="st0" d="M346,258v26.6h-3.6c0-1.4,0-2.3,0-2.9c-0.3,1-0.8,1.9-1.6,2.5c-0.8,0.6-1.8,0.9-2.8,0.9
		c-1.9,0-3.5-0.9-4.7-2.7c-1.2-1.8-1.8-4.4-1.8-7.7c0-3.3,0.6-5.9,1.7-7.7s2.7-2.8,4.8-2.8c1.9,0,3.3,1,4.1,2.9c0-0.5,0-1.4,0-2.5
		V258C342.1,258,346,258,346,258z M335.4,274.6L335.4,274.6c0,4.4,1.1,6.6,3.4,6.6c1,0,1.8-0.5,2.5-1.4c0.3-0.5,0.6-1.1,0.7-1.8
		c0.1-0.7,0.2-1.9,0.2-3.5c0-1.6,0-2.7-0.2-3.4c-0.1-0.7-0.3-1.3-0.7-1.8c-0.6-0.9-1.5-1.4-2.5-1.4
		C336.5,267.9,335.4,270.1,335.4,274.6z"/>
	<path class="st0" d="M364.5,275.9h-10.8c0,1.6,0.3,2.9,0.9,3.9c0.6,1.1,1.5,1.6,2.7,1.6c0.8,0,1.5-0.3,2.1-0.8
		c0.6-0.5,0.9-1.3,1.1-2.3h3.9c-0.4,2.4-1.3,4.1-2.7,5.3c-1.2,0.9-2.7,1.4-4.4,1.4c-2.5,0-4.5-1-5.8-3s-2-4.5-2-7.5
		c0-3.1,0.7-5.6,2-7.6c1.3-2,3.2-2.9,5.7-2.9c2.5,0,4.4,1,5.7,3.1C364.1,269.1,364.6,272,364.5,275.9z M353.7,272.6h7
		c0-1.4-0.3-2.6-0.9-3.7c-0.5-1.1-1.4-1.6-2.6-1.6c-1.1,0-1.9,0.5-2.6,1.4C354,269.7,353.7,270.9,353.7,272.6z"/>
	<path class="st0" d="M379.4,278.5l-1.7,6.2h-4.5l7.4-26.6h4.1l7.6,26.6H388l-1.7-6.2H379.4z M385.1,274.4l-2.3-10.3l-2.3,10.3
		H385.1z"/>
	<path class="st0" d="M403.8,277.3h4c-0.1,2.2-0.7,4.1-1.8,5.5c-1.1,1.5-2.7,2.2-4.7,2.2c-2.5,0-4.4-0.9-5.7-2.8
		c-1.4-1.9-2-4.4-2-7.6c0-3.3,0.7-5.9,2.1-7.7c1.4-1.9,3.3-2.8,5.6-2.8c2,0,3.6,0.8,4.8,2.2s1.7,3.4,1.8,5.6h-4
		c-0.1-2.8-1.1-4.2-2.8-4.2c-1.1,0-1.9,0.5-2.5,1.6c-0.6,1.2-0.9,2.9-0.9,5.3c0,4.6,1.1,6.8,3.4,6.8
		C402.6,281.4,403.6,280,403.8,277.3z"/>
	<path class="st0" d="M411.3,284.6v-16.5h-2.4v-3.7h2.4v-4.8h3.9v4.8h2.4v3.7h-2.4v16.5L411.3,284.6L411.3,284.6z"/>
	<path class="st0" d="M418.8,274.6L418.8,274.6c0-3.1,0.7-5.6,2-7.6c1.3-2,3.2-3,5.8-3c2.5,0,4.4,1,5.8,3s2,4.5,2,7.6
		c0,3-0.7,5.6-2,7.5c-1.3,2-3.2,3-5.8,3c-2.5,0-4.5-1-5.8-3C419.5,280.1,418.8,277.6,418.8,274.6z M422.9,274.6L422.9,274.6
		c0,2.4,0.3,4.2,0.9,5.2c0.6,1.1,1.5,1.6,2.8,1.6c2.4,0,3.6-2.3,3.6-6.8c0-2.4-0.3-4.2-0.9-5.2c-0.6-1.1-1.5-1.6-2.8-1.6
		C424.1,267.7,422.9,270,422.9,274.6z"/>
	<path class="st0" d="M437.7,284.6v-20.1h3.6c0,1.5,0,2.6,0,3.2c0.4-1.4,1-2.4,1.9-2.9c0.9-0.5,2-0.8,3.3-0.8v4.7
		c-0.5-0.3-1-0.5-1.7-0.5c-0.9,0-1.7,0.4-2.3,1.3c-0.6,0.9-0.9,2.1-0.9,3.6v11.4H437.7z"/>
	<path class="st0" d="M462.6,275.9h-10.8c0,1.6,0.3,2.9,0.9,3.9c0.6,1.1,1.5,1.6,2.7,1.6c0.8,0,1.5-0.3,2.1-0.8
		c0.6-0.5,0.9-1.3,1.1-2.3h3.8c-0.4,2.4-1.3,4.1-2.7,5.3c-1.2,0.9-2.7,1.4-4.4,1.4c-2.5,0-4.5-1-5.8-3c-1.3-2-2-4.5-2-7.5
		c0-3.1,0.7-5.6,2-7.6c1.3-2,3.2-2.9,5.7-2.9c2.5,0,4.4,1,5.7,3.1C462.2,269.1,462.7,272,462.6,275.9z M451.8,272.6h7
		c0-1.4-0.3-2.6-0.8-3.7c-0.5-1.1-1.4-1.6-2.6-1.6c-1.1,0-1.9,0.5-2.6,1.4C452.1,269.7,451.8,270.9,451.8,272.6z"/>
	<path class="st0" d="M477.8,270.2h-3.9c0-1.8-0.9-2.7-2.6-2.7c-0.7,0-1.2,0.2-1.6,0.6c-0.4,0.4-0.6,0.9-0.6,1.5
		c0,0.3,0,0.5,0.1,0.7c0.1,0.2,0.2,0.4,0.4,0.6c0.2,0.2,0.4,0.3,0.5,0.4s0.4,0.2,0.7,0.4s0.6,0.2,0.8,0.3c0.2,0.1,0.5,0.2,1,0.3
		c0.5,0.1,0.8,0.2,1,0.3c1.4,0.5,2.5,1.1,3.4,2c0.8,0.9,1.3,2.3,1.3,4.1c0,1.8-0.6,3.4-1.9,4.6c-1.3,1.2-2.9,1.8-4.8,1.8
		c-2,0-3.6-0.6-4.8-1.7s-2-2.8-2.1-5h3.9c0,1,0.3,1.7,0.9,2.3s1.3,0.9,2.2,0.9c0.8,0,1.5-0.2,1.9-0.7c0.4-0.5,0.6-1.1,0.6-1.9
		c0-0.2,0-0.4,0-0.6c0-0.2-0.1-0.4-0.2-0.5c-0.1-0.2-0.2-0.3-0.3-0.4c-0.1-0.1-0.3-0.2-0.5-0.4s-0.4-0.2-0.5-0.3
		c-0.1-0.1-0.3-0.2-0.7-0.3c-0.3-0.1-0.5-0.2-0.7-0.2s-0.4-0.1-0.8-0.2c-0.4-0.1-0.7-0.2-0.8-0.2c-1.4-0.5-2.5-1.2-3.4-2
		c-0.8-0.9-1.2-2.2-1.2-3.9c0-1.7,0.6-3,1.7-4.1s2.7-1.5,4.7-1.5C475.5,264.1,477.6,266.1,477.8,270.2z"/>
	<path class="st0" d="M207,332.6V306h6.2c3.4,0,5.8,0.7,7.1,2.1c1.6,1.6,2.4,3.7,2.4,6.3c0,1.7-0.3,3.2-0.9,4.3
		c-0.9,1.7-2.1,2.8-3.7,3.4l5.1,10.7h-4.9l-5.9-13.1c0.5,0,0.9,0,1.2,0c1.4,0,2.5-0.4,3.3-1.1c0.9-0.9,1.3-2.1,1.3-3.6
		c0-1.8-0.5-3-1.5-3.8c-0.7-0.5-1.9-0.8-3.5-0.8h-1.7v22.6H207z"/>
	<path class="st0" d="M240.3,323.9h-10.8c0,1.6,0.3,2.9,0.9,3.9c0.6,1.1,1.5,1.6,2.7,1.6c0.8,0,1.5-0.3,2.1-0.8
		c0.6-0.5,0.9-1.3,1.1-2.3h3.9c-0.4,2.3-1.3,4.1-2.7,5.3c-1.2,0.9-2.7,1.4-4.4,1.4c-2.5,0-4.5-1-5.8-3c-1.3-2-2-4.5-2-7.5
		c0-3.1,0.7-5.6,2-7.6c1.3-2,3.2-2.9,5.7-2.9c2.5,0,4.4,1,5.7,3.1C239.8,317.1,240.4,320,240.3,323.9z M229.4,320.6h7
		c0-1.4-0.3-2.6-0.9-3.7c-0.5-1.1-1.4-1.6-2.6-1.6c-1.1,0-1.9,0.5-2.6,1.4C229.8,317.7,229.4,318.9,229.4,320.6z"/>
	<path class="st0" d="M244.2,332.6V306h3.9v26.6H244.2z"/>
	<path class="st0" d="M267.1,323.9h-10.8c0,1.6,0.3,2.9,0.9,3.9c0.6,1.1,1.5,1.6,2.7,1.6c0.8,0,1.5-0.3,2.1-0.8
		c0.6-0.5,0.9-1.3,1.1-2.3h3.9c-0.4,2.3-1.3,4.1-2.7,5.3c-1.2,0.9-2.7,1.4-4.4,1.4c-2.5,0-4.5-1-5.8-3c-1.3-2-2-4.5-2-7.5
		c0-3.1,0.7-5.6,2-7.6c1.3-2,3.2-2.9,5.7-2.9c2.5,0,4.4,1,5.7,3.1C266.6,317.1,267.2,320,267.1,323.9z M256.2,320.6h7
		c0-1.4-0.3-2.6-0.9-3.7c-0.5-1.1-1.4-1.6-2.6-1.6c-1.1,0-1.9,0.5-2.6,1.4C256.6,317.7,256.2,318.9,256.2,320.6z"/>
	<path class="st0" d="M283.1,312.5l-5.5,20.1H274l-5.9-20.1h4l3.7,14.4l3.4-14.4H283.1z"/>
	<path class="st0" d="M298.6,312.5v20.1H295c0-1.2,0-2.1,0-2.6c-0.9,2-2.4,3.1-4.4,3.1c-1.9,0-3.5-0.9-4.7-2.7
		c-1.2-1.8-1.8-4.4-1.8-7.7c0-3.3,0.6-5.9,1.7-7.7c1.1-1.8,2.7-2.8,4.8-2.8c2.2,0,3.7,1.1,4.4,3.2c0-0.6,0-1.5,0-2.7L298.6,312.5
		L298.6,312.5z M288,322.6L288,322.6c0,4.4,1.1,6.6,3.4,6.6c1,0,1.8-0.5,2.5-1.4c0.3-0.5,0.6-1.1,0.7-1.8c0.1-0.7,0.2-1.9,0.2-3.4
		c0-1.6,0-2.7-0.2-3.5c-0.1-0.7-0.3-1.3-0.7-1.8c-0.6-0.9-1.5-1.4-2.5-1.4C289.1,316,288,318.2,288,322.6z"/>
	<path class="st0" d="M303,332.6v-20.1h3.4c0,1.1,0,1.9,0,2.5c0.9-1.9,2.5-2.9,4.8-2.9c3.6,0,5.4,2.1,5.4,6.2v14.3h-3.9v-13.1
		c0-2.4-0.9-3.6-2.7-3.6c-1,0-1.8,0.3-2.3,0.9s-0.8,1.6-0.8,2.8v12.9H303z"/>
	<path class="st0" d="M321.6,332.6v-16.5h-2.4v-3.7h2.4v-4.8h3.9v4.8h2.4v3.7h-2.4v16.5L321.6,332.6L321.6,332.6z"/>
	<path class="st0" d="M344.3,323.9h-10.8c0,1.6,0.3,2.9,0.9,3.9c0.6,1.1,1.5,1.6,2.7,1.6c0.8,0,1.5-0.3,2.1-0.8
		c0.6-0.5,0.9-1.3,1.1-2.3h3.9c-0.4,2.3-1.3,4.1-2.7,5.3c-1.2,0.9-2.7,1.4-4.4,1.4c-2.5,0-4.5-1-5.8-3c-1.3-2-2-4.5-2-7.5
		c0-3.1,0.7-5.6,2-7.6c1.3-2,3.2-2.9,5.7-2.9c2.5,0,4.4,1,5.7,3.1C343.8,317.1,344.4,320,344.3,323.9z M333.4,320.6h7
		c0-1.4-0.3-2.6-0.9-3.7c-0.5-1.1-1.4-1.6-2.6-1.6c-1.1,0-1.9,0.5-2.6,1.4C333.8,317.7,333.4,318.9,333.4,320.6z"/>
	<path class="st0" d="M359.5,318.2h-3.9c0-1.8-0.9-2.7-2.6-2.7c-0.6,0-1.2,0.2-1.6,0.6c-0.4,0.4-0.6,0.9-0.6,1.5
		c0,0.3,0,0.5,0.1,0.7c0.1,0.2,0.2,0.4,0.4,0.6s0.4,0.3,0.5,0.4s0.4,0.2,0.7,0.4c0.4,0.1,0.6,0.2,0.8,0.3c0.2,0.1,0.5,0.2,1,0.3
		c0.5,0.1,0.8,0.2,1,0.3c1.4,0.5,2.5,1.1,3.4,2c0.9,0.9,1.3,2.3,1.3,4.1c0,1.8-0.6,3.4-1.9,4.6c-1.3,1.2-2.9,1.8-4.8,1.8
		c-2,0-3.6-0.6-4.8-1.7s-2-2.8-2.1-5h3.9c0,1,0.3,1.7,0.9,2.3c0.6,0.6,1.3,0.8,2.2,0.8c0.8,0,1.5-0.2,1.9-0.7s0.6-1.1,0.6-1.9
		c0-0.2,0-0.4,0-0.6s-0.1-0.4-0.2-0.5c-0.1-0.2-0.2-0.3-0.3-0.4c-0.1-0.1-0.3-0.2-0.5-0.4c-0.2-0.1-0.4-0.2-0.5-0.3
		s-0.3-0.2-0.7-0.3c-0.3-0.1-0.5-0.2-0.7-0.2c-0.1,0-0.4-0.1-0.8-0.2c-0.4-0.1-0.6-0.2-0.8-0.2c-1.4-0.5-2.5-1.2-3.4-2
		c-0.8-0.9-1.2-2.2-1.2-3.9c0-1.7,0.6-3,1.7-4.1c1.1-1,2.7-1.5,4.7-1.5C357.1,312.1,359.2,314.1,359.5,318.2z"/>
	<path class="st0" d="M386.2,306v26.6h-3.6c0-1.4,0-2.3,0-2.9c-0.3,1-0.8,1.9-1.6,2.5c-0.8,0.6-1.8,0.9-2.8,0.9
		c-1.9,0-3.5-0.9-4.7-2.7c-1.2-1.8-1.8-4.4-1.8-7.7c0-3.3,0.6-5.9,1.7-7.7s2.7-2.8,4.8-2.8c1.9,0,3.3,1,4.1,2.9c0-0.5,0-1.4,0-2.5
		V306C382.3,306,386.2,306,386.2,306z M375.6,322.6L375.6,322.6c0,4.4,1.1,6.6,3.4,6.6c1,0,1.8-0.5,2.5-1.4c0.3-0.5,0.6-1.1,0.7-1.8
		c0.1-0.7,0.2-1.9,0.2-3.5c0-1.6,0-2.7-0.2-3.4c-0.1-0.7-0.3-1.3-0.7-1.8c-0.6-0.9-1.5-1.4-2.5-1.4
		C376.7,315.9,375.6,318.1,375.6,322.6z"/>
	<path class="st0" d="M404.7,323.9h-10.8c0,1.6,0.3,2.9,0.9,3.9c0.6,1.1,1.5,1.6,2.7,1.6c0.8,0,1.5-0.3,2.1-0.8
		c0.6-0.5,0.9-1.3,1.1-2.3h3.9c-0.4,2.3-1.3,4.1-2.7,5.3c-1.2,0.9-2.7,1.4-4.4,1.4c-2.5,0-4.5-1-5.8-3c-1.3-2-2-4.5-2-7.5
		c0-3.1,0.7-5.6,2-7.6c1.3-2,3.2-2.9,5.7-2.9c2.5,0,4.4,1,5.7,3.1C404.3,317.1,404.8,320,404.7,323.9z M393.9,320.6h7
		c0-1.4-0.3-2.6-0.9-3.7c-0.5-1.1-1.4-1.6-2.6-1.6c-1.1,0-1.9,0.5-2.6,1.4C394.2,317.7,393.9,318.9,393.9,320.6z"/>
	<path class="st0" d="M408.7,332.6V306h3.9v26.6H408.7z"/>
	<path class="st0" d="M440.1,322.9h4.5c0,2.9-0.8,5.3-2.4,7.3s-3.8,2.9-6.7,2.9c-3,0-5.3-1.2-7-3.5c-1.7-2.3-2.5-5.8-2.5-10.3
		c0-4.5,0.8-7.9,2.5-10.3s4-3.6,7-3.6c2.9,0,5.2,1,6.8,3c1.6,2,2.4,4.5,2.3,7.5h-4.5c-0.1-4.2-1.5-6.4-4.4-6.4
		c-3.5,0-5.3,3.2-5.3,9.8c0,3.2,0.5,5.6,1.4,7.2s2.2,2.3,3.8,2.3C438.5,329,439.9,327,440.1,322.9z"/>
	<path class="st0" d="M447.2,319.3L447.2,319.3c0-4.2,0.8-7.6,2.5-10.1c1.7-2.5,4.1-3.7,7.2-3.7c3.2,0,5.6,1.2,7.2,3.7
		c1.7,2.5,2.5,5.9,2.5,10.1c0,4.1-0.8,7.4-2.5,10c-1.6,2.6-4.1,3.8-7.3,3.8c-3.1,0-5.5-1.2-7.2-3.7
		C448,326.9,447.2,323.5,447.2,319.3z M451.7,319.3L451.7,319.3c0,6.5,1.7,9.8,5.2,9.8c3.5,0,5.3-3.2,5.3-9.8c0-6.5-1.8-9.8-5.3-9.8
		C453.4,309.6,451.7,312.8,451.7,319.3z"/>
	<path class="st0" d="M475,306l8.3,18.2V306h3.9v26.6h-4.1l-8.9-19.3v19.3h-3.9V306H475z"/>
	<path class="st0" d="M492.2,332.6V306H505v4.1h-8.4v6.7h8.4v4h-8.4v7.7h8.4v4.1H492.2z"/>
	<path class="st0" d="M515,332.6l-7.5-26.6h4.3l5.2,20.1l5.2-20.1h4.2l-7.5,26.6H515z"/>
	<path class="st0" d="M531.2,326.5l-1.7,6.2h-4.5l7.4-26.6h4.1l7.6,26.6h-4.5l-1.7-6.2H531.2z M536.9,322.4l-2.3-10.3l-2.3,10.3
		H536.9z"/>
	<path class="st0" d="M546.7,332.6V306h4.4v22.6h7.6v4.1H546.7z"/>
</g>
<rect x="185.7" y="237.3" class="st1" width="6.8" height="115.9"/>
</svg>
